<svg viewBox="0 0 110 100" fill="none" xmlns="http://www.w3.org/2000/svg">
  <rect x="10" y="15" width="6" height="55" rx="1" fill="#FFFFFF"/>
  <path d="M 18 50 L 32 30 H 38 L 24 50 Z" fill="#FFFFFF"/>
  <path d="M 22 47 L 40 70 H 34 L 20 44 Z" fill="#FFFFFF"/>
  <path d="M 34 50 C 34 30 52 30 52 40 H 42 C 42 38 40 40 40 48 H 52 V 54 C 52 70 34 70 34 50 Z M 40 54 C 40 64 46 64 46 58 H 40 Z" fill="#FFFFFF"/>
  <rect x="54" y="30" width="6" height="40" rx="1" fill="#FFFFFF"/>
  <path d="M 60 38 C 60 30 70 30 72 30 V 38 C 68 38 66 40 66 50 V 70 H 60 Z" fill="#FFFFFF"/>
  <rect x="72" y="30" width="6" height="40" rx="1" fill="#FFFFFF"/>
  <path d="M 78 38 C 78 30 90 30 92 38 V 70 H 86 V 42 C 86 36 78 36 78 42 V 70 H 72 Z" fill="#FFFFFF"/>
  <rect x="92" y="30" width="6" height="40" rx="1" fill="#FFFFFF"/>
  <rect x="94" y="15" width="6" height="55" rx="1" fill="#FFFFFF"/>
</svg>
